<?xml version="1.0" standalone="no"?>
<!DOCTYPE svg PUBLIC "-//W3C//DTD SVG 20010904//EN"
 "http://www.w3.org/TR/2001/REC-SVG-20010904/DTD/svg10.dtd">
<svg version="1.0" xmlns="http://www.w3.org/2000/svg"
 width="585.000000pt" height="367.000000pt" viewBox="0 0 585.000000 367.000000"
 preserveAspectRatio="xMidYMid meet">
<metadata>
Created by potrace 1.16, written by Peter Selinger 2001-2019
</metadata>
<g transform="translate(0.000000,367.000000) scale(0.100000,-0.100000)"
fill="#000000" stroke="none">
<path d="M2565 3033 c-106 -11 -246 -72 -323 -139 -197 -172 -232 -484 -87
-774 24 -47 51 -99 61 -116 17 -30 17 -31 -12 -75 -72 -107 -120 -249 -111
-327 6 -57 34 -93 83 -111 36 -13 44 -12 86 7 54 24 67 41 113 152 19 46 37
85 40 88 2 3 42 -31 87 -74 104 -100 215 -184 341 -259 l98 -58 47 22 c81 40
234 146 326 227 49 44 107 94 128 112 l38 33 23 -53 c13 -29 27 -65 30 -80 10
-37 59 -92 102 -112 70 -33 147 10 166 92 15 69 -35 226 -113 347 l-26 40 48
90 c171 320 157 612 -39 805 -161 159 -423 210 -662 130 l-62 -21 -81 25 c-81
25 -218 39 -301 29z m245 -66 c30 -7 55 -16 54 -22 -1 -5 -23 -23 -50 -38 -27
-16 -65 -44 -84 -62 -33 -31 -40 -33 -108 -34 -89 -1 -112 -6 -182 -41 -78
-39 -124 -94 -155 -182 -17 -49 -20 -174 -5 -183 6 -3 10 -17 10 -30 0 -111
165 -390 322 -542 75 -73 226 -188 291 -223 46 -25 46 -25 79 -6 78 45 210
147 291 226 162 155 269 325 328 520 22 71 17 225 -9 280 -47 100 -145 165
-272 179 -83 9 -227 -2 -243 -18 -6 -6 -18 -11 -26 -11 -23 0 -132 -76 -163
-115 -50 -60 -82 -155 -58 -170 6 -3 10 -13 10 -21 0 -8 12 -33 26 -56 28 -45
23 -57 -26 -58 -14 0 -38 -7 -54 -15 -41 -22 -61 -19 -76 13 -8 15 -19 34 -26
42 -18 23 -37 146 -29 187 19 105 129 241 248 307 103 58 170 77 287 83 142 8
232 -9 331 -60 98 -50 159 -113 207 -215 37 -76 37 -78 36 -202 0 -118 -2
-131 -38 -235 -21 -60 -50 -130 -65 -155 -14 -25 -32 -57 -40 -71 -43 -86
-228 -296 -349 -397 -31 -26 -69 -58 -83 -70 -29 -25 -144 -101 -202 -132
l-38 -21 -45 21 c-24 12 -44 25 -44 28 0 4 -14 13 -31 21 -56 25 -224 159
-322 258 -98 99 -237 275 -237 300 0 7 -4 13 -10 13 -5 0 -10 5 -10 11 0 7
-13 33 -29 60 -17 26 -33 63 -37 83 -3 20 -9 36 -13 36 -8 0 -26 77 -43 185
-38 248 130 486 379 534 67 12 237 11 303 -2z m-150 -217 c0 -5 -11 -34 -25
-65 -54 -117 -54 -208 0 -316 33 -67 32 -89 -3 -89 -19 0 -117 -46 -160 -75
-20 -14 -42 -25 -48 -25 -16 0 -72 135 -85 205 -12 65 -5 161 15 210 33 77
101 126 210 150 76 17 96 18 96 5z m726 -21 c149 -48 211 -206 155 -399 -20
-73 -57 -150 -70 -150 -5 0 -35 16 -67 35 -32 19 -83 44 -113 56 -30 11 -58
22 -62 25 -4 2 5 26 22 52 58 95 60 232 4 343 -14 28 -23 54 -20 59 7 12 80 1
151 -21z m-181 -53 c26 -53 30 -69 29 -140 -1 -101 -22 -151 -97 -232 -62 -67
-140 -110 -257 -144 -41 -11 -83 -25 -92 -31 -10 -5 -23 -9 -30 -9 -7 -1 -31
-9 -53 -20 -22 -11 -43 -19 -47 -20 -4 0 -30 -14 -58 -31 -27 -17 -54 -29 -59
-27 -4 1 -27 25 -51 52 l-42 50 23 19 c44 35 141 79 277 124 157 51 217 80
253 120 47 52 59 80 59 140 0 60 -15 94 -52 121 -10 7 -18 17 -18 22 0 11 63
47 103 59 63 19 79 11 112 -53z m-229 -71 c44 -67 15 -210 -39 -189 -20 7 -47
64 -47 100 0 36 38 114 56 114 7 0 21 -11 30 -25z m354 -412 c112 -57 127 -75
87 -105 -15 -11 -34 -33 -43 -50 -15 -28 -16 -29 -37 -14 -12 9 -29 19 -37 23
-8 4 -21 13 -28 20 -7 7 -20 13 -28 13 -8 0 -34 9 -57 19 -23 11 -63 22 -90
26 -26 4 -50 11 -52 16 -3 4 21 26 54 48 33 23 63 46 67 52 11 18 62 3 164
-48z m-277 -113 c114 -34 251 -99 255 -121 7 -37 -311 -309 -361 -309 -39 0
-367 271 -367 304 0 20 108 75 229 116 64 22 123 39 131 40 8 0 59 -14 113
-30z m-730 -224 c26 -35 47 -67 47 -71 0 -4 -9 -18 -19 -31 -11 -14 -22 -42
-26 -64 -4 -22 -11 -40 -16 -40 -5 0 -9 -8 -9 -17 -1 -22 -26 -52 -62 -76 -26
-16 -30 -16 -53 -1 -14 9 -30 33 -36 54 -10 32 -8 48 11 106 34 103 88 204
110 204 3 0 27 -29 53 -64z m1346 9 c43 -80 71 -154 77 -210 6 -48 4 -55 -23
-85 -28 -32 -31 -33 -60 -20 -28 13 -83 86 -83 111 0 16 -39 97 -50 104 -5 3
-10 12 -10 18 0 17 101 138 112 135 6 -2 22 -26 37 -53z"/>
<path d="M1326 1069 c-33 -39 -35 -47 -38 -209 -4 -155 -15 -182 -77 -201 -31
-9 -43 -8 -70 6 -51 26 -63 67 -60 209 l2 121 -52 0 -53 0 1 -134 c2 -156 11
-179 79 -212 36 -18 56 -21 116 -17 130 8 156 48 156 236 0 129 9 177 40 210
20 21 20 22 1 22 -10 0 -31 -14 -45 -31z"/>
<path d="M385 1060 c-20 -9 -20 -9 1 -9 28 -1 109 -54 129 -85 14 -21 16 -49
13 -176 l-3 -150 48 0 c26 0 50 1 54 3 4 1 6 41 4 89 -1 48 0 92 4 98 4 7 52
-36 119 -106 130 -138 181 -174 244 -174 48 0 49 14 1 24 -18 3 -52 22 -76 42
l-44 36 3 174 3 174 -60 0 -61 0 4 -105 c3 -61 0 -105 -5 -105 -5 0 -62 54
-126 119 -140 142 -195 175 -252 151z"/>
<path d="M2456 1061 c-16 -6 -11 -10 25 -19 49 -12 106 -61 115 -98 3 -13 4
-86 2 -163 l-3 -139 56 -4 57 -3 -5 96 c-4 62 -2 98 5 103 6 3 63 -50 128
-118 65 -68 134 -134 155 -145 39 -22 119 -29 119 -10 0 6 -6 9 -12 6 -18 -6
-77 26 -116 64 l-33 31 3 169 3 169 -60 0 -61 0 4 -105 c3 -65 1 -105 -6 -105
-5 0 -57 51 -116 114 -130 140 -199 181 -260 157z"/>
<path d="M160 1015 c-24 -14 -24 -14 -3 -15 24 0 70 -50 79 -85 6 -24 -4 -49
-81 -208 -18 -37 -29 -69 -25 -72 13 -8 50 7 50 21 0 7 5 25 12 39 10 22 17
25 64 25 l52 0 34 -62 c56 -103 162 -160 232 -125 31 16 31 16 5 16 -53 2
-104 63 -154 182 -62 149 -116 248 -145 269 -39 28 -88 34 -120 15z"/>
<path d="M1830 1015 c-24 -14 -24 -14 -3 -15 23 0 65 -48 77 -86 4 -13 -12
-60 -48 -138 -30 -65 -59 -123 -65 -129 -15 -15 -29 0 -97 99 -32 47 -63 91
-68 98 -6 9 4 31 35 70 24 31 47 56 50 56 4 0 9 7 13 15 4 12 -3 15 -29 15
-20 0 -35 -5 -35 -12 0 -13 -87 -143 -107 -160 -27 -22 -13 -49 114 -212 53
-67 106 -100 164 -99 25 0 56 6 69 13 23 12 23 13 -14 25 -37 13 -96 60 -96
77 0 5 12 7 26 6 23 -3 28 2 38 37 l12 40 57 3 57 3 26 -55 c53 -112 169 -174
244 -131 l25 14 -27 1 c-44 0 -97 56 -136 140 -19 41 -47 103 -63 138 -16 35
-29 67 -29 71 0 18 -63 93 -93 111 -38 23 -63 25 -97 5z"/>
<path d="M3050 1015 c-24 -14 -24 -14 -3 -15 24 0 70 -49 79 -84 5 -21 -24
-93 -92 -228 l-23 -48 28 0 c23 0 29 5 37 38 9 37 9 37 67 40 l58 3 15 -38
c26 -62 74 -114 128 -139 58 -27 90 -29 126 -9 l25 14 -29 1 c-53 0 -105 71
-176 235 -68 159 -98 205 -148 229 -40 19 -59 20 -92 1z"/>
<path d="M1400 979 c7 -13 10 -76 8 -179 l-3 -158 53 -4 c29 -2 56 -2 60 0 4
1 4 35 0 75 -6 67 -3 194 7 260 l5 27 -71 0 c-67 0 -69 -1 -59 -21z"/>
<path d="M2195 822 l0 -180 58 -4 c32 -2 60 -2 62 0 2 2 -1 18 -6 36 -5 18 -8
91 -6 162 2 121 4 129 23 132 34 5 74 -34 74 -74 0 -36 -28 -74 -55 -74 -20 0
-21 1 26 -93 80 -159 144 -211 258 -211 37 0 77 6 91 14 25 13 24 14 -36 32
-64 19 -126 68 -179 143 -16 22 -40 52 -53 67 -24 26 -24 26 -3 33 30 9 61 53
61 87 0 76 -45 99 -200 106 l-115 5 0 -181z"/>
<path d="M3537 994 c-3 -4 -2 -15 4 -26 6 -12 10 -81 8 -176 -3 -142 -1 -157
14 -156 9 0 34 1 55 2 l37 2 0 77 0 78 74 3 c53 2 79 -1 97 -13 24 -15 24 -15
24 25 0 41 -7 49 -27 29 -12 -12 -127 -21 -155 -13 -15 4 -18 17 -18 75 l0 69
48 0 c27 0 57 -6 68 -15 28 -21 34 -18 34 15 l0 30 -128 0 c-71 0 -132 -3
-135 -6z"/>
<path d="M4083 978 c-27 -30 -37 -63 -24 -85 9 -15 10 -13 11 13 0 39 30 67
72 67 94 0 134 -190 57 -278 -16 -18 -43 -36 -59 -40 -39 -9 -91 17 -114 56
-32 55 -32 179 0 263 10 25 -24 20 -63 -10 -54 -41 -73 -80 -73 -150 0 -51 5
-67 29 -101 44 -61 88 -78 201 -78 79 0 102 4 137 22 66 36 88 75 88 159 0 62
-3 75 -28 107 -38 51 -94 77 -160 77 -43 0 -58 -5 -74 -22z"/>
<path d="M4490 977 c-133 -64 -130 -252 5 -325 32 -17 187 -24 237 -10 88 25
156 157 117 230 -23 42 15 88 72 88 20 0 20 -5 17 -160 l-3 -160 118 0 c98 0
124 3 157 20 61 31 84 72 84 149 0 79 -18 120 -70 151 -84 53 -297 50 -368 -4
-28 -21 -36 -23 -46 -12 -22 28 -99 56 -150 56 -66 0 -100 -30 -100 -87 l1
-38 14 40 c8 22 15 41 15 43 0 10 53 19 77 13 49 -13 73 -62 73 -150 0 -87
-19 -130 -69 -156 -39 -20 -59 -19 -98 5 -67 41 -90 151 -54 259 12 35 21 65
19 66 -2 2 -23 -6 -48 -18z m652 -32 c86 -86 43 -285 -62 -285 -24 0 -29 5
-34 33 -7 38 -7 258 1 269 10 18 71 7 95 -17z"/>
<path d="M5521 986 c-47 -26 -66 -100 -36 -143 8 -11 48 -42 90 -68 102 -63
118 -95 69 -140 -43 -40 -120 -30 -166 22 -10 10 -22 37 -27 59 l-9 39 -1 -38
c-1 -53 22 -93 69 -117 149 -76 324 81 218 195 -18 19 -64 52 -103 73 -70 38
-87 60 -65 87 20 24 99 19 127 -7 l23 -21 0 36 0 37 -82 0 c-50 -1 -93 -6
-107 -14z"/>
<path d="M3123 353 l-62 -4 -3 -120 -3 -120 79 3 c58 2 81 7 84 17 4 11 0 12
-14 6 -11 -5 -35 -9 -54 -9 -35 -1 -35 -1 -38 48 l-3 48 40 -4 c29 -2 41 0 41
9 0 8 -14 13 -41 13 l-40 0 3 48 3 47 48 -2 c31 -1 47 3 44 10 -4 13 -7 14
-84 10z"/>
<path d="M968 230 l-3 -122 87 4 c75 3 90 6 112 27 50 47 51 131 1 180 -23 23
-35 26 -110 30 l-84 3 -3 -122z m139 95 c28 -19 46 -84 37 -130 -8 -45 -47
-77 -88 -73 l-31 3 -3 94 c-1 52 -1 100 2 108 7 18 57 16 83 -2z"/>
<path d="M4228 230 l-3 -120 63 0 c61 0 99 11 114 34 14 21 8 63 -12 81 -15
13 -17 22 -10 36 30 54 -6 89 -92 89 l-57 0 -3 -120z"/>
<path d="M1774 301 c-56 -34 -56 -134 0 -175 32 -25 96 -27 141 -5 24 11 31
21 33 52 3 34 1 37 -22 37 -23 0 -26 -4 -26 -33 0 -40 -15 -57 -51 -57 -38 0
-69 42 -69 91 0 29 8 47 31 74 26 30 28 35 13 35 -11 0 -33 -9 -50 -19z"/>
<path d="M2007 314 c-4 -4 -7 -52 -7 -106 l0 -98 28 0 c26 0 27 2 27 47 l0 48
43 3 42 3 0 -50 c0 -49 1 -51 28 -51 l27 0 -1 102 c-1 102 -1 103 -25 103 -22
0 -24 -5 -27 -48 l-3 -48 -42 3 -42 3 -1 45 c0 37 -4 46 -20 48 -11 2 -23 0
-27 -4z"/>
<path d="M2850 260 c0 -38 -4 -60 -11 -60 -7 0 -40 25 -74 55 -35 30 -66 55
-69 55 -3 0 -6 -45 -6 -100 0 -100 0 -100 25 -100 23 0 24 3 27 65 l3 65 73
-65 c40 -36 75 -65 77 -65 3 0 5 47 5 105 l0 105 -25 0 c-24 0 -25 -3 -25 -60z"/>
<path d="M3699 312 c0 -4 -1 -51 -2 -104 l-2 -98 29 0 28 0 -2 83 c-3 110 -4
109 23 105 28 -4 36 -52 12 -78 -16 -18 -16 -21 5 -55 24 -39 47 -55 80 -55
15 0 18 3 11 13 -6 6 -22 26 -36 44 l-26 32 21 21 c47 47 12 89 -79 95 -34 2
-61 1 -62 -3z"/>
</g>
</svg>
