<svg height="367pt" preserveAspectRatio="xMidYMid meet" viewBox="0 0 585 367" width="585pt" xmlns="http://www.w3.org/2000/svg"><g transform="matrix(.1 0 0 -.1 0 367)"><path d="m2480 3011c-306-82-464-358-391-682 25-110 41-154 99-261l47-89-19-32c-79-135-119-247-119-330 0-65 22-98 80-123 28-12 38-12 73 2 54 22 83 59 120 156 17 46 36 87 41 92 5 6 41-21 91-70 46-44 113-103 150-132 91-72 269-182 293-182 50 0 240 130 412 282 67 59 124 108 126 108s19-39 37-87c41-108 62-137 116-164 43-20 43-20 87-1 56 25 82 74 74 141-9 76-44 171-92 256l-46 80 55 110c128 256 143 459 50 653-65 135-202 239-367 276-99 23-245 21-337-6-95-27-136-27-234 0-99 28-249 29-346 3zm328-39c35-9 64-21 64-27 1-5-23-23-53-38-30-16-70-43-89-62-33-31-39-33-108-34-89-1-112-6-182-41-78-39-124-94-155-182-16-46-21-173-6-182 4-3 11-26 14-51 4-25 16-62 27-83 11-20 33-65 49-100 87-181 263-372 478-517 44-30 89-55 100-55 38 0 218 135 333 250 157 158 265 322 316 485 27 86 25 233-4 295-47 100-145 165-272 179-83 9-227-2-243-18-6-6-18-11-26-11-23 0-132-76-163-115-29-34-68-116-68-141 0-15 31-73 63-118 23-33 13-46-38-46-16 0-43-7-59-15-41-22-61-19-76 13-8 15-19 34-26 42-18 24-37 147-30 198 4 27 23 74 46 113 156 263 572 362 846 201 102-59 164-137 204-255 20-59 22-81 18-175-5-89-12-126-43-217-20-61-49-130-64-155-14-25-32-57-40-71-43-86-228-296-349-397-31-26-69-58-83-70-29-25-144-101-202-132l-38-21-45 21c-24 12-44 25-44 28 0 4-14 13-31 21-56 25-224 159-322 258s-237 275-237 300c0 7-4 13-10 13-5 0-10 5-10 11 0 7-13 33-29 60-17 26-33 63-37 83-3 20-9 36-13 36-7 0-22 62-41 165-22 127 0 256 60 347 69 104 189 185 313 212 87 19 229 18 305-2zm-138-221c0-5-14-39-31-76-28-58-32-78-32-149 0-72 4-90 32-149 18-37 31-72 29-78-2-5-42-27-90-48-47-21-100-48-116-60-17-11-34-21-40-21-12 0-56 91-76 160-23 79-21 213 5 270 46 103 138 155 277 159 23 1 42-3 42-8zm695-6c117-31 177-97 198-219 9-51 8-79-5-145-16-80-69-211-85-211-4 0-21 9-38 21-39 26-173 89-192 89-27 0-24 28 9 91 27 52 34 76 36 139 3 66 0 86-23 141-44 105-44 109 2 109 21 0 66-7 98-15zm-172-32c39-62 50-109 44-187-7-93-32-149-100-222-62-67-140-110-257-144-41-11-83-25-92-31-10-5-23-9-28-9-6 0-32-9-58-20-47-21-69-32-128-66l-30-17-47 46c-26 25-47 52-47 61 0 33 114 89 325 161 77 27 151 55 165 63 37 23 90 74 90 88 0 6 7 17 15 24 10 9 15 31 15 73 0 55-3 62-35 93-19 18-35 39-35 46 0 16 30 36 90 59 69 27 86 24 113-18zm-213-105c40-66 38-136-6-183l-25-27-25 23c-49 46-51 132-5 196 22 31 38 28 61-9zm260-364c62-21 175-82 195-104 15-17 14-20-22-57-21-21-43-47-48-57-10-17-11-17-37 3-14 12-31 21-37 21s-11 4-11 10c0 5-19 14-42 21-24 6-48 15-55 21-6 5-40 13-74 18s-66 13-71 18c-10 10 125 120 147 121 6 0 30-6 55-15zm-238-138c24-7 67-21 96-30 113-36 222-95 222-121 0-31-251-250-346-301l-33-18-63 44c-97 67-188 143-252 210-58 60-58 61-40 82 24 26 162 92 229 109 28 7 64 18 80 25 39 17 55 17 107 0zm-669-252c26-35 47-67 47-72s-11-18-24-29c-14-13-27-38-31-62-4-23-11-41-16-41s-9-8-9-17c-1-22-26-52-62-76-26-16-30-16-51-2-27 17-47 55-47 89 0 76 103 293 132 280 7-3 34-34 61-70zm1360-27c66-136 74-208 29-258-27-31-30-31-59-19-28 13-83 86-83 111 0 19-33 83-52 102-10 10-18 21-18 25s25 38 57 75c52 63 57 66 74 51 9-8 33-48 52-87z"/><path d="m1341 1084c-40-29-51-73-51-209 0-143-12-185-59-209-44-23-77-20-113 13l-33 29v141 141h-52-53v-127c0-109 3-133 20-160 54-89 234-99 297-16 27 35 28 40 31 182 3 154 11 192 46 216 14 11 16 15 5 15-8 0-25-7-38-16z"/><path d="m411 1046c49-17 108-64 115-91 3-12 4-88 2-169l-3-146h55 55l-3 100c-2 57 1 100 6 100s66-59 135-130c128-132 167-160 229-160 31 0 30 1-20 26-28 14-65 41-82 60l-30 35v140c0 78 5 149 10 160 10 18 7 19-52 19h-63l3-68c2-37 2-85 0-106l-3-39-120 122c-128 131-172 161-232 161l-38-1z"/><path d="m2495 1041c22-10 55-32 73-49l33-31-3-161-3-160h55 55l-4 85c-1 47 0 93 3 102 5 13 37-13 144-120 138-137 167-157 225-157h32l-40 19c-22 11-57 35-78 54l-38 35 3 166 3 166h-63c-46 0-61-3-56-12 9-15 15-156 7-182-4-15-29 5-132 106-144 142-166 158-218 158h-38z"/><path d="m180 1019-25-10 27-15c30-16 58-61 58-93 0-11-25-72-55-136-30-65-55-119-55-121s11-4 25-4c19 0 25 5 25 21 0 46 17 59 79 59h59l17-42c20-52 78-115 122-134 37-16 119-19 128-4 3 6-2 10-12 10-56 1-98 59-179 245-32 71-68 145-81 163-41 55-90 78-133 61zm105-226c18-44 13-53-31-53-39 0-43 13-18 66 19 39 29 37 49-13z"/><path d="m1855 1022c-27-5-44-22-23-22 20 0 66-53 74-84 4-16-12-61-46-137-54-118-66-139-81-139-14 0-159 202-159 221 0 10 4 20 9 23 5 4 28 29 51 56l42 50h-29c-22 0-33-8-48-36-10-20-38-61-62-91-24-31-43-59-43-64 0-9 29-50 118-166 61-80 111-113 172-113 25 0 54 6 65 14 17 12 16 13-11 20-37 10-94 53-94 72 0 9 10 14 30 14 24 0 30 4 30 21 0 45 17 59 75 59 54 0 55 0 76-42 35-70 58-96 104-124 47-27 128-35 148-15 8 8 5 11-12 11-58 0-93 49-181 249-35 80-76 159-91 176-29 33-80 54-114 47zm95-224c10-23 16-46 14-50-9-14-64-9-70 6-5 14 20 86 31 86 3 0 14-19 25-42z"/><path d="m3069 1020c-15-9-12-15 22-49 24-24 39-48 39-64 0-13-25-77-55-142-30-64-55-118-55-121 0-2 11-4 25-4 19 0 25 5 25 23 0 44 20 58 80 55 54-3 55-3 77-50 32-67 83-114 145-133 43-14 59-15 83-5l30 12-40 14c-22 7-41 14-42 14-7 1-74 117-93 160-85 203-140 290-185 290-7 0-19 2-27 5-7 2-20 0-29-5zm105-221c9-22 14-45 11-50-8-13-62-11-71 2-7 12 24 89 36 89 5 0 15-18 24-41z"/><path d="m3645 993-100-4v-174-175h55 55l-3 80-4 80h85c47 0 89-4 92-10 13-21 25-9 25 24v34l-29-14c-20-10-53-14-98-12l-68 3-3 73-3 72h51c28 0 60-5 71-10 16-9 19-7 19 15 0 20-5 25-22 23-13-1-68-4-123-5z"/><path d="m4085 975c-14-13-25-34-25-47 1-20 3-19 14 9 27 61 114 51 148-17 23-46 23-151 1-197-19-40-66-73-103-73-39 0-90 37-107 77-19 47-19 154 0 216 8 26 13 47 11 47-25 0-79-37-103-71-26-34-31-52-31-96 0-63 16-99 63-140 86-76 275-66 354 19 46 50 55 125 24 195-40 88-190 135-246 78z"/><path d="m4589 971c-17-17-29-39-28-53l1-23 7 24c3 13 19 33 33 44 24 18 32 19 65 9 56-17 77-58 78-152 0-60-5-82-22-111-41-66-111-78-167-28-56 49-73 158-40 255 8 25 14 48 12 50s-22-6-44-16c-55-27-87-85-86-155 1-109 66-170 195-182 171-16 292 94 255 230-6 24-8 52-5 61 9 22 76 51 89 38 5-5 8-77 6-166l-3-156h110c125 0 173 15 218 69 41 50 41 155 0 210-42 55-91 71-220 71-118 0-154-8-190-42l-23-21-37 26c-84 57-158 64-204 18zm547-16c73-50 71-233-2-281-12-9-38-14-56-12l-33 3-3 140c-1 76 0 145 2 152 7 18 67 16 92-2z"/><path d="m5364 992c-12-8-26-92-16-92 21 1 62 55 62 82 0 18-26 24-46 10z"/><path d="m5520 978c-20-14-38-36-44-55-14-52 7-87 83-134 36-23 76-51 89-62 51-47 9-117-72-117-50 0-94 27-118 72-9 18-17 26-18 17 0-26 43-83 75-99 43-21 124-18 166 6 18 11 44 35 56 54 48 71 21 126-97 195-45 26-84 55-87 63-17 43 62 76 117 48 42-20 42-20 38 7-3 20-9 22-78 25-66 2-81 0-110-20z"/><path d="m1405 815v-175h55 55l-3 161c-2 113 0 164 9 175 10 12 2 14-52 14h-64z"/><path d="m2195 815v-175h55 55v162 163l26 3c40 5 73-28 72-72-1-38-26-76-50-76-21 0-16-18 29-104 54-106 82-139 142-172 58-32 143-37 190-12l29 15-38 7c-60 12-106 39-158 95-26 27-47 54-47 58s-16 26-36 48c-30 35-33 41-18 50 43 26 56 43 61 82 5 36 2 45-21 66-33 31-64 37-190 37h-101z"/><path d="m975 230v-120h63c110 0 162 39 162 121 0 55-30 95-82 109-48 14-60 7-19-10 37-15 56-64 48-124-7-52-44-86-93-86h-35l3 115 3 115h-25-25z"/><path d="m2568 230-3-120h28 27v120 120h-24c-25 0-25 0-28-120z"/><path d="m3060 230v-121l77 3c55 2 78 7 81 17 4 11 0 12-14 6-11-5-36-10-56-13l-38-4v51 51h40c22 0 40 4 40 10 0 5-17 8-37 7l-38-2v50c0 44 3 50 25 56 18 5 11 7-27 8l-53 1z"/><path d="m3175 340c3-5 13-10 21-10s14 5 14 10c0 6-9 10-21 10-11 0-17-4-14-10z"/><path d="m4230 229v-121l69 4c50 2 75 9 90 22 26 24 27 60 1 84-17 16-18 22-8 49 21 57-11 83-103 83h-49zm91 101c21-12 26-59 9-76-8-8-6-15 5-24 23-19 20-87-6-100-42-23-49-8-49 98 0 114 3 122 41 102z"/><path d="m1255 312c-3-3-5-50-5-104v-98h38c22 0 32 3 24 8-9 6-12 34-10 100 3 87 2 91-19 95-13 2-25 2-28-1z"/><path d="m1350 310c-12-8-10-10 8-10 13 0 20 4 17 10-7 12-6 12-25 0z"/><path d="m1640 318c-1-2-2-49-3-106l-2-102h25c25 0 25 0 25 98 0 53-4 100-10 104-9 7-34 11-35 6z"/><path d="m1795 311c-71-30-81-152-15-186 71-37 175-4 168 54-5 39-42 36-46-4-5-42-19-55-58-55-27 0-36 6-49 30-24 46-20 106 10 136 35 35 32 42-10 25z"/><path d="m2020 313c-12-3-15-23-15-103 0-96 1-100 22-100 19 0 22 6 25 48l3 47 43 3c45 3 48-1 43-70-2-24 1-28 26-28h28v100c0 83-3 100-16 103-24 7-43-8-35-28 3-9 3-28 0-41-6-22-11-25-48-22-40 3-41 4-44 43-4 44-10 53-32 48z"/><path d="m2240 310c0-5 7-10 16-10 8 0 12 5 9 10-3 6-10 10-16 10-5 0-9-4-9-10z"/><path d="m2309 316c-2-2-3-50-1-105 3-99 4-101 27-101s24 2 27 100c2 76 0 101-10 105-16 6-37 7-43 1z"/><path d="m2405 310c-3-5 3-10 15-10s18 5 15 10c-3 6-10 10-15 10s-12-4-15-10z"/><path d="m2857 314c-4-4-7-31-7-61 0-36-4-53-12-53-7 0-41 25-74 55-34 30-64 51-68 48-3-3-6-48-6-100 0-93 0-93 25-93 24 0 25 2 25 65 0 36 3 65 6 65s35-27 71-60 70-60 75-60 7 44 6 97c-2 79-6 98-18 101-9 1-19 0-23-4z"/><path d="m3260 311c0-19 84-191 92-189 14 5 97 187 87 193-5 4-21-21-35-54-15-34-32-61-38-61-11 0-46 74-46 98 0 6-6 12-14 12s-21 3-30 6-16 1-16-5z"/><path d="m3505 311c-3-2-5-49-5-103v-98h69c52 0 70 4 75 15 6 17-9 21-19 5-3-5-22-10-40-10-28 0-36 4-41 24-3 14-3 34 1 46 6 19 12 21 42 17 24-4 33-2 30 6-2 7-17 11-34 9-35-4-50 20-38 59 6 17 13 20 46 17 22-2 39 1 39 7 0 10-116 16-125 6z"/><path d="m3705 312c-3-3-5-50-5-104 0-95 1-98 23-98 21 0 22 3 19 72-3 93 3 118 28 118 32 0 44-35 24-69-15-25-15-33-4-61 15-35 51-63 75-58 14 2 11 11-15 46l-31 43 21 26c25 32 25 45 3 65-17 15-127 30-138 20z"/><path d="m3911 310c-8-4 0-24 24-61 31-45 36-61 33-96-3-40-1-43 22-43 24 0 25 3 25 53 0 45 5 59 33 94 35 45 38 53 20 53-7 0-21-18-30-40-21-50-40-51-63-1-17 39-42 55-64 41z"/><path d="m4555 310c-3-5 1-10 10-10s13 5 10 10c-3 6-8 10-10 10s-7-4-10-10z"/><path d="m4629 313c0-5-1-52-2-105l-2-98h25c25 0 25 0 25 98 0 53-4 100-10 104-13 10-35 10-36 1z"/><path d="m4905 310c-3-5 1-10 10-10s13 5 10 10c-3 6-8 10-10 10s-7-4-10-10z"/><path d="m1445 210v-100h67c37 0 70 4 73 10 4 6-10 8-39 4-42-6-45-5-52 20-3 14-4 58-2 96 4 69 3 70-22 70h-25z"/><path d="m1890 305c0-2 9-9 20-15 16-9 20-8 20 5 0 8-9 15-20 15s-20-2-20-5z"/><path d="m4460 210v-100h25 25v100 100h-25-25z"/><path d="m4728 303c7-3 16-2 19 1 4 3-2 6-13 5-11 0-14-3-6-6z"/><path d="m4795 210c0-100 0-100 25-100 23 0 25 3 25 47 0 47 0 48 33 48 17 0 32 3 32 7s-15 8-32 10c-28 2-34 8-36 31-2 16 2 35 9 43 9 12 6 14-22 14h-34z"/><path d="m1330 216c0-9 30-14 35-6 4 6-3 10-14 10-12 0-21-2-21-4z"/><path d="m1360 125-25-14 28-1c17 0 27 5 27 15 0 18 1 18-30 0z"/><path d="m4900 120c-12-8-11-10 8-10 12 0 22 5 22 10 0 13-11 13-30 0z"/></g></svg>